<mxfile host="drawio-plugin" modified="2024-07-10T17:49:43.216Z" agent="Mozilla/5.0 (Windows NT 10.0; Win64; x64) AppleWebKit/537.36 (KHTML, like Gecko) Chrome/122.0.0.0 Safari/537.36" version="22.1.22" etag="BUrbtlEYk65q9OXcEm18" type="embed">
  <diagram id="C5of115crDilbZsXTlXS" name="Page-1">
    <mxGraphModel dx="11821" dy="2060" grid="1" gridSize="10" guides="1" tooltips="1" connect="1" arrows="1" fold="1" page="1" pageScale="1" pageWidth="850" pageHeight="1100" math="0" shadow="0">
      <root>
        <mxCell id="0" />
        <mxCell id="1" parent="0" />
        <mxCell id="2" value="" style="shape=ext;double=1;rounded=0;whiteSpace=wrap;html=1;" vertex="1" parent="1">
          <mxGeometry x="-9780" y="-280" width="6800" height="3100" as="geometry" />
        </mxCell>
        <mxCell id="4" value="&lt;span style=&quot;font-size: 55px;&quot;&gt;Report&lt;/span&gt;" style="text;strokeColor=none;fillColor=none;html=1;fontSize=24;fontStyle=1;verticalAlign=middle;align=center;" vertex="1" parent="1">
          <mxGeometry x="-7050" y="-210.0008108108109" width="990" height="94.5945945945946" as="geometry" />
        </mxCell>
        <mxCell id="5" value="`" style="shape=folder;fontStyle=1;spacingTop=10;tabWidth=150;tabHeight=20;tabPosition=left;html=1;whiteSpace=wrap;fillColor=#4d2b36;strokeColor=#314354;fontColor=#ffffff;" vertex="1" parent="1">
          <mxGeometry x="-9660" y="80" width="540" height="1170" as="geometry" />
        </mxCell>
        <mxCell id="6" value="" style="shape=folder;fontStyle=1;spacingTop=10;tabWidth=150;tabHeight=20;tabPosition=left;html=1;whiteSpace=wrap;fillColor=#4e5b46;strokeColor=#82b366;" vertex="1" parent="1">
          <mxGeometry x="-8440" y="240" width="2510" height="2350" as="geometry" />
        </mxCell>
        <mxCell id="7" value="" style="shape=folder;fontStyle=1;spacingTop=10;tabWidth=150;tabHeight=20;tabPosition=left;html=1;whiteSpace=wrap;fillColor=#724013;strokeColor=#432D57;fontColor=#ffffff;" vertex="1" parent="1">
          <mxGeometry x="-5850" y="260" width="2580" height="2200" as="geometry" />
        </mxCell>
        <mxCell id="8" value="&lt;font style=&quot;font-size: 15px;&quot;&gt;Data Layer&lt;/font&gt;" style="text;html=1;strokeColor=none;fillColor=none;align=center;verticalAlign=middle;whiteSpace=wrap;rounded=0;" vertex="1" parent="1">
          <mxGeometry x="-9660" y="90" width="150" height="40" as="geometry" />
        </mxCell>
        <mxCell id="9" value="&lt;font style=&quot;font-size: 20px;&quot;&gt;Logic Layer&lt;/font&gt;" style="text;html=1;strokeColor=none;fillColor=none;align=center;verticalAlign=middle;whiteSpace=wrap;rounded=0;" vertex="1" parent="1">
          <mxGeometry x="-8410" y="220" width="190" height="60" as="geometry" />
        </mxCell>
        <mxCell id="10" value="&lt;font style=&quot;font-size: 20px;&quot;&gt;Presentation Layer&lt;/font&gt;" style="text;html=1;strokeColor=none;fillColor=none;align=center;verticalAlign=middle;whiteSpace=wrap;rounded=0;" vertex="1" parent="1">
          <mxGeometry x="-5830" y="259.99999999999983" width="140" height="30" as="geometry" />
        </mxCell>
        <mxCell id="13" value="&lt;font style=&quot;font-size: 30px;&quot;&gt;ReportController Framework&lt;/font&gt;" style="shape=module;align=left;spacingLeft=20;align=center;verticalAlign=top;whiteSpace=wrap;html=1;" vertex="1" parent="1">
          <mxGeometry x="-5790" y="410" width="1240" height="1030" as="geometry" />
        </mxCell>
        <mxCell id="18" style="edgeStyle=orthogonalEdgeStyle;rounded=0;orthogonalLoop=1;jettySize=auto;html=1;entryX=0;entryY=0.5;entryDx=0;entryDy=0;dashed=1;" edge="1" parent="1" source="14" target="17">
          <mxGeometry relative="1" as="geometry" />
        </mxCell>
        <mxCell id="14" value="&lt;p style=&quot;margin: 4px 0px 0px; text-align: center; font-size: 17px;&quot;&gt;&lt;b style=&quot;&quot;&gt;&lt;font style=&quot;font-size: 17px;&quot;&gt;AbstractReportController&lt;/font&gt;&lt;/b&gt;&lt;/p&gt;&lt;hr style=&quot;font-size: 17px;&quot; size=&quot;1&quot;&gt;&lt;p style=&quot;margin: 0px 0px 0px 4px; line-height: 1.6; font-size: 17px;&quot;&gt;&lt;font style=&quot;font-size: 17px;&quot;&gt;# AbstractReportController(ReportService&amp;lt;T&amp;gt;): &lt;/font&gt;&lt;/p&gt;&lt;hr style=&quot;font-size: 17px;&quot; size=&quot;1&quot;&gt;&lt;p style=&quot;margin: 0px 0px 0px 4px; line-height: 1.6; font-size: 17px;&quot;&gt;&lt;font style=&quot;font-size: 17px;&quot;&gt;+ getTopActionsByUser(String): ResponseEntity&amp;lt;List&amp;lt;T&amp;gt;&amp;gt;&lt;/font&gt;&lt;/p&gt;&lt;hr style=&quot;font-size: 17px;&quot; size=&quot;1&quot;&gt;&lt;p style=&quot;margin: 0px 0px 0px 4px; line-height: 1.6; font-size: 17px;&quot;&gt;&lt;font style=&quot;font-size: 17px;&quot;&gt; avgActionsPerUser: ResponseEntity&amp;lt;T&amp;gt;&lt;br&gt; weeklyActiveUsers: ResponseEntity&amp;lt;List&amp;lt;T&amp;gt;&amp;gt;&lt;br&gt; actionsLeadingToCancellations: ResponseEntity&amp;lt;List&amp;lt;T&amp;gt;&amp;gt;&lt;br&gt; peakActivityHours: ResponseEntity&amp;lt;List&amp;lt;T&amp;gt;&amp;gt;&lt;br&gt; avgTimeBetweenActionsPerUser: ResponseEntity&amp;lt;List&amp;lt;T&amp;gt;&amp;gt;&lt;br&gt; bookingsMadeEachDay: ResponseEntity&amp;lt;List&amp;lt;T&amp;gt;&amp;gt;&lt;br&gt; mostFrequentActionSequences: ResponseEntity&amp;lt;List&amp;lt;T&amp;gt;&amp;gt;&lt;br&gt; actionsGroupedByType: ResponseEntity&amp;lt;List&amp;lt;T&amp;gt;&amp;gt;&lt;br&gt; mostActiveDaysOfWeek: ResponseEntity&amp;lt;List&amp;lt;T&amp;gt;&amp;gt;&lt;br&gt; loginAttemptsLastWeek: ResponseEntity&amp;lt;List&amp;lt;T&amp;gt;&amp;gt;&lt;br&gt; mostActiveUsers: ResponseEntity&amp;lt;List&amp;lt;T&amp;gt;&amp;gt;&lt;br&gt; timeToFirstActionAfterSignup: ResponseEntity&amp;lt;List&amp;lt;T&amp;gt;&amp;gt;&lt;br&gt; dailyActiveUsers: ResponseEntity&amp;lt;List&amp;lt;T&amp;gt;&amp;gt;&lt;br&gt; usersWithMoreThanTenActions: ResponseEntity&amp;lt;List&amp;lt;T&amp;gt;&amp;gt;&lt;br&gt; userActionsLastMonth: ResponseEntity&amp;lt;List&amp;lt;T&amp;gt;&amp;gt;&lt;br&gt; totalActions: ResponseEntity&amp;lt;T&amp;gt;&lt;br&gt; correlationBetweenActionsAndRatings: ResponseEntity&amp;lt;List&amp;lt;T&amp;gt;&amp;gt;&lt;br&gt; userActionsOverTime: ResponseEntity&amp;lt;List&amp;lt;T&amp;gt;&amp;gt;&lt;br&gt; actionsLeadingToHighRatings: ResponseEntity&amp;lt;List&amp;lt;T&amp;gt;&amp;gt;&lt;br&gt; distributionOfActionsPastMonth: ResponseEntity&amp;lt;List&amp;lt;T&amp;gt;&amp;gt;&lt;br&gt; userRetentionRate: ResponseEntity&amp;lt;T&amp;gt;&lt;br&gt; actionTypesByUser: ResponseEntity&amp;lt;List&amp;lt;T&amp;gt;&amp;gt;&lt;br&gt; hourlyBookingTrends: ResponseEntity&amp;lt;List&amp;lt;T&amp;gt;&amp;gt;&lt;br&gt; monthlyActiveUsers: ResponseEntity&amp;lt;List&amp;lt;T&amp;gt;&amp;gt;&lt;/font&gt;&lt;/p&gt;" style="verticalAlign=top;align=left;overflow=fill;fontSize=14;fontFamily=Helvetica;html=1;rounded=0;shadow=0;comic=0;labelBackgroundColor=none;strokeWidth=1;fillColor=#76608a;fontColor=#ffffff;strokeColor=#432D57;" vertex="1" parent="1">
          <mxGeometry x="-5730" y="510" width="620" height="800" as="geometry" />
        </mxCell>
        <mxCell id="17" value="&lt;p style=&quot;margin: 4px 0px 0px; text-align: center; font-size: 18px;&quot;&gt;&lt;b style=&quot;&quot;&gt;&lt;font style=&quot;font-size: 18px;&quot;&gt;BaseReportResponseDTO&lt;/font&gt;&lt;/b&gt;&lt;/p&gt;&lt;hr style=&quot;font-size: 18px;&quot; size=&quot;1&quot;&gt;&lt;p style=&quot;margin: 0px 0px 0px 4px; line-height: 1.6; font-size: 18px;&quot;&gt;&lt;font style=&quot;font-size: 18px;&quot;&gt;+ BaseReportResponseDTO(String, Map&amp;lt;String, Object&amp;gt;): &lt;br&gt;+ BaseReportResponseDTO(): &lt;/font&gt;&lt;/p&gt;&lt;hr style=&quot;font-size: 18px;&quot; size=&quot;1&quot;&gt;&lt;p style=&quot;margin: 0px 0px 0px 4px; line-height: 1.6; font-size: 18px;&quot;&gt;&lt;font style=&quot;font-size: 18px;&quot;&gt;- query: String&lt;br&gt;- result: Map&amp;lt;String, Object&amp;gt;&lt;/font&gt;&lt;/p&gt;&lt;hr style=&quot;font-size: 18px;&quot; size=&quot;1&quot;&gt;&lt;p style=&quot;margin: 0px 0px 0px 4px; line-height: 1.6; font-size: 18px;&quot;&gt;&lt;font style=&quot;font-size: 18px;&quot;&gt; result: Map&amp;lt;String, Object&amp;gt;&lt;br&gt; query: String&lt;/font&gt;&lt;/p&gt;" style="verticalAlign=top;align=left;overflow=fill;fontSize=14;fontFamily=Helvetica;html=1;rounded=0;shadow=0;comic=0;labelBackgroundColor=none;strokeWidth=1;fillColor=#1ba1e2;fontColor=#ffffff;strokeColor=#006EAF;" vertex="1" parent="1">
          <mxGeometry x="-5030" y="550" width="399" height="290" as="geometry" />
        </mxCell>
        <mxCell id="19" value="&lt;font style=&quot;font-size: 30px;&quot;&gt;ReportController&lt;/font&gt;" style="shape=module;align=left;spacingLeft=20;align=center;verticalAlign=top;whiteSpace=wrap;html=1;" vertex="1" parent="1">
          <mxGeometry x="-4530" y="840" width="1180" height="1170" as="geometry" />
        </mxCell>
        <mxCell id="20" value="&lt;p style=&quot;margin: 4px 0px 0px; text-align: center; font-size: 18px;&quot;&gt;&lt;b style=&quot;&quot;&gt;&lt;font style=&quot;font-size: 18px;&quot;&gt;ReportController&lt;/font&gt;&lt;/b&gt;&lt;/p&gt;&lt;hr style=&quot;font-size: 18px;&quot; size=&quot;1&quot;&gt;&lt;p style=&quot;margin: 0px 0px 0px 4px; line-height: 1.6; font-size: 18px;&quot;&gt;&lt;font style=&quot;font-size: 18px;&quot;&gt;+ ReportController(ReportServiceImpl): &lt;/font&gt;&lt;/p&gt;&lt;hr style=&quot;font-size: 18px;&quot; size=&quot;1&quot;&gt;&lt;p style=&quot;margin: 0px 0px 0px 4px; line-height: 1.6; font-size: 18px;&quot;&gt;&lt;font style=&quot;font-size: 18px;&quot;&gt;+ getTopActionsByUser(String): ResponseEntity&amp;lt;List&amp;lt;ReportResponseDTO&amp;gt;&amp;gt;&lt;/font&gt;&lt;/p&gt;&lt;hr style=&quot;font-size: 18px;&quot; size=&quot;1&quot;&gt;&lt;p style=&quot;margin: 0px 0px 0px 4px; line-height: 1.6; font-size: 18px;&quot;&gt;&lt;font style=&quot;font-size: 18px;&quot;&gt; avgActionsPerUser: ResponseEntity&amp;lt;ReportResponseDTO&amp;gt;&lt;br&gt; weeklyActiveUsers: ResponseEntity&amp;lt;List&amp;lt;ReportResponseDTO&amp;gt;&amp;gt;&lt;br&gt; actionsLeadingToCancellations: ResponseEntity&amp;lt;List&amp;lt;ReportResponseDTO&amp;gt;&amp;gt;&lt;br&gt; peakActivityHours: ResponseEntity&amp;lt;List&amp;lt;ReportResponseDTO&amp;gt;&amp;gt;&lt;br&gt; avgTimeBetweenActionsPerUser: ResponseEntity&amp;lt;List&amp;lt;ReportResponseDTO&amp;gt;&amp;gt;&lt;br&gt; bookingsMadeEachDay: ResponseEntity&amp;lt;List&amp;lt;ReportResponseDTO&amp;gt;&amp;gt;&lt;br&gt; mostFrequentActionSequences: ResponseEntity&amp;lt;List&amp;lt;ReportResponseDTO&amp;gt;&amp;gt;&lt;br&gt; actionsGroupedByType: ResponseEntity&amp;lt;List&amp;lt;ReportResponseDTO&amp;gt;&amp;gt;&lt;br&gt; mostActiveDaysOfWeek: ResponseEntity&amp;lt;List&amp;lt;ReportResponseDTO&amp;gt;&amp;gt;&lt;br&gt; loginAttemptsLastWeek: ResponseEntity&amp;lt;List&amp;lt;ReportResponseDTO&amp;gt;&amp;gt;&lt;br&gt; mostActiveUsers: ResponseEntity&amp;lt;List&amp;lt;ReportResponseDTO&amp;gt;&amp;gt;&lt;br&gt; timeToFirstActionAfterSignup: ResponseEntity&amp;lt;List&amp;lt;ReportResponseDTO&amp;gt;&amp;gt;&lt;br&gt; dailyActiveUsers: ResponseEntity&amp;lt;List&amp;lt;ReportResponseDTO&amp;gt;&amp;gt;&lt;br&gt; usersWithMoreThanTenActions: ResponseEntity&amp;lt;List&amp;lt;ReportResponseDTO&amp;gt;&amp;gt;&lt;br&gt; userActionsLastMonth: ResponseEntity&amp;lt;List&amp;lt;ReportResponseDTO&amp;gt;&amp;gt;&lt;br&gt; totalActions: ResponseEntity&amp;lt;ReportResponseDTO&amp;gt;&lt;br&gt; correlationBetweenActionsAndRatings: ResponseEntity&amp;lt;List&amp;lt;ReportResponseDTO&amp;gt;&amp;gt;&lt;br&gt; userActionsOverTime: ResponseEntity&amp;lt;List&amp;lt;ReportResponseDTO&amp;gt;&amp;gt;&lt;br&gt; actionsLeadingToHighRatings: ResponseEntity&amp;lt;List&amp;lt;ReportResponseDTO&amp;gt;&amp;gt;&lt;br&gt; distributionOfActionsPastMonth: ResponseEntity&amp;lt;List&amp;lt;ReportResponseDTO&amp;gt;&amp;gt;&lt;br&gt; userRetentionRate: ResponseEntity&amp;lt;ReportResponseDTO&amp;gt;&lt;br&gt; actionTypesByUser: ResponseEntity&amp;lt;List&amp;lt;ReportResponseDTO&amp;gt;&amp;gt;&lt;br&gt; hourlyBookingTrends: ResponseEntity&amp;lt;List&amp;lt;ReportResponseDTO&amp;gt;&amp;gt;&lt;br&gt; monthlyActiveUsers: ResponseEntity&amp;lt;List&amp;lt;ReportResponseDTO&amp;gt;&amp;gt;&lt;/font&gt;&lt;/p&gt;" style="verticalAlign=top;align=left;overflow=fill;fontSize=14;fontFamily=Helvetica;html=1;rounded=0;shadow=0;comic=0;labelBackgroundColor=none;strokeWidth=1;fillColor=#6d8764;fontColor=#ffffff;strokeColor=#3A5431;" vertex="1" parent="1">
          <mxGeometry x="-4180" y="930" width="760" height="850" as="geometry" />
        </mxCell>
        <mxCell id="27" value="&lt;font style=&quot;font-size: 23px;&quot;&gt;Extends&lt;/font&gt;" style="endArrow=block;endSize=16;endFill=0;html=1;rounded=0;exitX=0;exitY=0.25;exitDx=0;exitDy=0;entryX=0.968;entryY=0.8;entryDx=0;entryDy=0;entryPerimeter=0;" edge="1" parent="1" source="20" target="14">
          <mxGeometry width="160" relative="1" as="geometry">
            <mxPoint x="-4130" y="1560" as="sourcePoint" />
            <mxPoint x="-3970" y="1560" as="targetPoint" />
          </mxGeometry>
        </mxCell>
        <mxCell id="28" value="&lt;p style=&quot;margin: 4px 0px 0px; text-align: center; font-size: 19px;&quot;&gt;&lt;b style=&quot;&quot;&gt;&lt;font style=&quot;font-size: 19px;&quot;&gt;ReportResponseDTO&lt;/font&gt;&lt;/b&gt;&lt;/p&gt;&lt;hr style=&quot;font-size: 19px;&quot; size=&quot;1&quot;&gt;&lt;p style=&quot;margin: 0px 0px 0px 4px; line-height: 1.6; font-size: 19px;&quot;&gt;&lt;font style=&quot;font-size: 19px;&quot;&gt;+ ReportResponseDTO(String, Map&amp;lt;String, Object&amp;gt;): &lt;/font&gt;&lt;/p&gt;" style="verticalAlign=top;align=left;overflow=fill;fontSize=14;fontFamily=Helvetica;html=1;rounded=0;shadow=0;comic=0;labelBackgroundColor=none;strokeWidth=1;fillColor=#647687;fontColor=#ffffff;strokeColor=#314354;" vertex="1" parent="1">
          <mxGeometry x="-4350" y="1840" width="620" height="110" as="geometry" />
        </mxCell>
        <mxCell id="30" value="&lt;font style=&quot;font-size: 18px;&quot;&gt;Extends&lt;/font&gt;" style="endArrow=block;endSize=16;endFill=0;html=1;rounded=0;exitX=0.5;exitY=0;exitDx=0;exitDy=0;entryX=0.425;entryY=0.995;entryDx=0;entryDy=0;entryPerimeter=0;" edge="1" parent="1" source="28" target="17">
          <mxGeometry width="160" relative="1" as="geometry">
            <mxPoint x="-4840" y="1590" as="sourcePoint" />
            <mxPoint x="-4680" y="1590" as="targetPoint" />
          </mxGeometry>
        </mxCell>
        <mxCell id="33" value="&lt;p style=&quot;margin: 4px 0px 0px; text-align: center; font-size: 19px;&quot;&gt;&lt;b style=&quot;&quot;&gt;&lt;font style=&quot;font-size: 19px;&quot;&gt;AbstractReportService&lt;/font&gt;&lt;/b&gt;&lt;/p&gt;&lt;hr style=&quot;font-size: 19px;&quot; size=&quot;1&quot;&gt;&lt;p style=&quot;margin: 0px 0px 0px 4px; line-height: 1.6; font-size: 19px;&quot;&gt;&lt;font style=&quot;font-size: 19px;&quot;&gt;+ AbstractReportService(): &lt;/font&gt;&lt;/p&gt;&lt;hr style=&quot;font-size: 19px;&quot; size=&quot;1&quot;&gt;&lt;p style=&quot;margin: 0px 0px 0px 4px; line-height: 1.6; font-size: 19px;&quot;&gt;&lt;font style=&quot;font-size: 19px;&quot;&gt;# createReportResponse(String, Map&amp;lt;String, Object&amp;gt;): T&lt;br&gt;+ getTopActionsBySpecificUser(String): List&amp;lt;T&amp;gt;&lt;/font&gt;&lt;/p&gt;&lt;hr style=&quot;font-size: 19px;&quot; size=&quot;1&quot;&gt;&lt;p style=&quot;margin: 0px 0px 0px 4px; line-height: 1.6; font-size: 19px;&quot;&gt;&lt;font style=&quot;font-size: 19px;&quot;&gt; distributionOfActionsPastMonth: List&amp;lt;T&amp;gt;&lt;br&gt; dailyActiveUsers: List&amp;lt;T&amp;gt;&lt;br&gt; timeToFirstActionAfterSignup: List&amp;lt;T&amp;gt;&lt;br&gt; hourlyBookingTrends: List&amp;lt;T&amp;gt;&lt;br&gt; actionsGroupedByType: List&amp;lt;T&amp;gt;&lt;br&gt; totalActions: T&lt;br&gt; mostActiveUsers: List&amp;lt;T&amp;gt;&lt;br&gt; avgTimeBetweenActionsPerUser: List&amp;lt;T&amp;gt;&lt;br&gt; peakActivityHours: List&amp;lt;T&amp;gt;&lt;br&gt; correlationBetweenActionsAndRatings: List&amp;lt;T&amp;gt;&lt;br&gt; mostFrequentActionSequences: List&amp;lt;T&amp;gt;&lt;br&gt; userActionsLastMonth: List&amp;lt;T&amp;gt;&lt;br&gt; userActionsOverTime: List&amp;lt;T&amp;gt;&lt;br&gt; weeklyActiveUsers: List&amp;lt;T&amp;gt;&lt;br&gt; mostActiveDaysOfWeek: List&amp;lt;T&amp;gt;&lt;br&gt; actionTypesByUser: List&amp;lt;T&amp;gt;&lt;br&gt; loginAttemptsLastWeek: List&amp;lt;T&amp;gt;&lt;br&gt; monthlyActiveUsers: List&amp;lt;T&amp;gt;&lt;br&gt; actionsLeadingToHighRatings: List&amp;lt;T&amp;gt;&lt;br&gt; avgActionsPerUser: T&lt;br&gt; bookingsMadeEachDay: List&amp;lt;T&amp;gt;&lt;br&gt; userRetentionRate: T&lt;br&gt; actionsLeadingToCancellations: List&amp;lt;T&amp;gt;&lt;br&gt; usersWithMoreThanTenActions: List&amp;lt;T&amp;gt;&lt;/font&gt;&lt;/p&gt;" style="verticalAlign=top;align=left;overflow=fill;fontSize=14;fontFamily=Helvetica;html=1;rounded=0;shadow=0;comic=0;labelBackgroundColor=none;strokeWidth=1;" vertex="1" parent="1">
          <mxGeometry x="-8330" y="290" width="620" height="930" as="geometry" />
        </mxCell>
      </root>
    </mxGraphModel>
  </diagram>
</mxfile>
